; NON-PLATED HOLES START AT T1
; THROUGH (PLATED) HOLES START AT T100
M48
INCH
T100C0.027559
T101C0.025000
T102C0.038492
T103C0.038000
T104C0.118110
T105C0.035000
T106C0.030000
T107C0.031497
%
T100
X025139Y005835
X026139Y006835
X025139Y006835
X026139Y007835
X025139Y007835
X026139Y005835
T101
X010539Y008195
X010539Y007675
T102
X020639Y007835
X023639Y007835
X019639Y008835
X017639Y008835
X004639Y004835
X006639Y004835
X018639Y008835
X009639Y004835
X007639Y004835
X005639Y004835
X008639Y004835
X006639Y010835
X004639Y010835
X005639Y010835
X007639Y010835
X009639Y010835
X020639Y008835
X023639Y008835
X008639Y010835
X014639Y004835
X012639Y004835
X010639Y004835
X016639Y004835
X015639Y004835
X013639Y004835
X011639Y004835
X019639Y004835
X017639Y004835
X020639Y006835
X018639Y004835
X014639Y010835
X016639Y010835
X012639Y010835
X010639Y010835
X023639Y006835
X015639Y010835
X019639Y010835
X017639Y010835
X013639Y010835
X011639Y010835
X018639Y010835
X022639Y004835
X020639Y004835
X019639Y007835
X017639Y007835
X023639Y004835
X021639Y004835
X018639Y007835
X022639Y010835
X020639Y010835
X023639Y010835
X021639Y010835
T103
X012639Y003335
X017639Y001335
X011639Y014335
X016639Y012335
X021639Y003335
X020639Y014335
X019639Y013335
X006639Y003335
X012639Y002335
X005639Y014335
X011639Y013335
X015639Y003335
X021639Y002335
X019639Y012335
X014639Y014335
X020639Y013335
X023639Y014335
X012639Y001335
X006639Y002335
X011639Y012335
X005639Y013335
X009639Y003335
X021639Y001335
X015639Y002335
X008639Y014335
X020639Y012335
X018639Y003335
X014639Y013335
X017639Y014335
X023639Y013335
X006639Y001335
X005639Y012335
X010639Y003335
X015639Y001335
X009639Y002335
X008639Y013335
X014639Y012335
X018639Y002335
X023639Y012335
X017639Y013335
X001639Y002335
X009639Y001335
X010639Y002335
X008639Y012335
X013639Y003335
X018639Y001335
X017639Y012335
X012639Y014335
X022639Y003335
X021639Y014335
X001639Y001335
X010639Y001335
X007639Y003335
X013639Y002335
X006639Y014335
X012639Y013335
X016639Y003335
X022639Y002335
X015639Y014335
X021639Y013335
X013639Y001335
X007639Y002335
X012639Y012335
X006639Y013335
X022639Y001335
X016639Y002335
X021639Y012335
X009639Y014335
X015639Y013335
X019639Y003335
X018639Y014335
X007639Y001335
X001639Y014335
X006639Y012335
X011639Y003335
X016639Y001335
X015639Y012335
X010639Y014335
X009639Y013335
X020639Y003335
X019639Y002335
X018639Y013335
X001639Y013335
X005639Y003335
X011639Y002335
X009639Y012335
X010639Y013335
X014639Y003335
X019639Y001335
X020639Y002335
X018639Y012335
X013639Y014335
X023639Y003335
X022639Y014335
X011639Y001335
X005639Y002335
X010639Y012335
X008639Y003335
X020639Y001335
X014639Y002335
X007639Y014335
X013639Y013335
X017639Y003335
X023639Y002335
X016639Y014335
X022639Y013335
X005639Y001335
X008639Y002335
X014639Y001335
X013639Y012335
X007639Y013335
X023639Y001335
X017639Y002335
X022639Y012335
X016639Y013335
X019639Y014335
X008639Y001335
X007639Y012335
T104
X025991Y013835
X002139Y007835
X025991Y001650
T105
X003639Y002335
X003639Y013335
X003639Y014335
X003639Y001335
T106
X021639Y009835
X022639Y008833
X022639Y009835
X005639Y008335
X024639Y008833
X005639Y009337
X024639Y009835
X006639Y008335
X006639Y009337
X021639Y008833
T107
X026139Y010335
X026139Y011319
T00
M30
