G04 MADE WITH FRITZING*
G04 WWW.FRITZING.ORG*
G04 DOUBLE SIDED*
G04 HOLES PLATED*
G04 CONTOUR ON CENTER OF CONTOUR VECTOR*
%ASAXBY*%
%FSLAX23Y23*%
%MOIN*%
%OFA0B0*%
%SFA1.0B1.0*%
%ADD10C,0.082892*%
%ADD11C,0.052000*%
%ADD12C,0.077559*%
%ADD13C,0.072992*%
%ADD14C,0.085000*%
%ADD15C,0.088000*%
%ADD16C,0.080000*%
%ADD17C,0.206851*%
%ADD18C,0.025748*%
%ADD19C,0.030000*%
%LNMASK0*%
G90*
G70*
G54D10*
X464Y1084D03*
X2364Y684D03*
X1764Y784D03*
X1864Y784D03*
X1964Y784D03*
X2064Y784D03*
X1764Y884D03*
X1864Y884D03*
X1964Y884D03*
X2064Y884D03*
X1164Y1084D03*
X1064Y1084D03*
X964Y1084D03*
X864Y1084D03*
X764Y1084D03*
X664Y1084D03*
X564Y1084D03*
X564Y484D03*
X1664Y484D03*
X1764Y484D03*
X1864Y484D03*
X1964Y484D03*
X2064Y484D03*
X2164Y484D03*
X2264Y484D03*
X2364Y484D03*
X664Y484D03*
X764Y484D03*
X864Y484D03*
X964Y484D03*
X1064Y484D03*
X1164Y484D03*
X1264Y484D03*
X1364Y484D03*
X1464Y484D03*
X1564Y484D03*
G54D11*
X1054Y820D03*
X1054Y768D03*
G54D10*
X1364Y1084D03*
X1264Y1084D03*
X1664Y1084D03*
X1764Y1084D03*
X1864Y1084D03*
X1964Y1084D03*
X2064Y1084D03*
X2164Y1084D03*
X2264Y1084D03*
X2364Y1084D03*
X464Y484D03*
X2364Y784D03*
X1464Y1084D03*
X1564Y1084D03*
X2364Y884D03*
X2064Y684D03*
G54D12*
X2514Y784D03*
X2514Y684D03*
X2514Y584D03*
X2614Y784D03*
X2614Y684D03*
X2614Y584D03*
G54D13*
X2614Y1132D03*
X2614Y1034D03*
G54D14*
X364Y134D03*
X364Y234D03*
X364Y1434D03*
X364Y1334D03*
G54D15*
X564Y234D03*
X664Y234D03*
X764Y234D03*
X864Y234D03*
X964Y234D03*
X1064Y234D03*
X1164Y234D03*
X1264Y234D03*
X1364Y234D03*
X564Y1334D03*
X664Y1334D03*
X764Y1334D03*
X864Y1334D03*
X964Y1334D03*
X1064Y1334D03*
X1164Y1334D03*
X1264Y1334D03*
X1364Y1334D03*
X1464Y1334D03*
X1564Y1334D03*
X1664Y1334D03*
X1764Y1334D03*
X1864Y1334D03*
X1964Y1334D03*
X2064Y1334D03*
X2164Y1334D03*
X2264Y1334D03*
X2364Y1334D03*
X564Y1434D03*
X664Y1434D03*
X764Y1434D03*
X864Y1434D03*
X964Y1434D03*
X1064Y1434D03*
X1164Y1434D03*
X1264Y1434D03*
X1364Y1434D03*
X1464Y1434D03*
X1564Y1434D03*
X1664Y1434D03*
X1764Y1434D03*
X1864Y1434D03*
X1964Y1434D03*
X2064Y1434D03*
X2164Y1434D03*
X2264Y1434D03*
X2364Y1434D03*
X1464Y234D03*
X1564Y234D03*
X1664Y234D03*
X1764Y234D03*
X1864Y234D03*
X1964Y234D03*
X2064Y234D03*
X2164Y234D03*
X2264Y234D03*
X2364Y234D03*
X564Y134D03*
X664Y134D03*
X764Y134D03*
X864Y134D03*
X964Y134D03*
X1064Y134D03*
X1164Y134D03*
X1264Y134D03*
X1364Y134D03*
X1464Y134D03*
X1564Y134D03*
X1664Y134D03*
X1764Y134D03*
X1864Y134D03*
X1964Y134D03*
X2064Y134D03*
X2164Y134D03*
X2264Y134D03*
X2364Y134D03*
X564Y334D03*
X664Y334D03*
X764Y334D03*
X864Y334D03*
X964Y334D03*
X1064Y334D03*
X1164Y334D03*
X1264Y334D03*
X1364Y334D03*
X1464Y334D03*
X1564Y334D03*
X1664Y334D03*
X1764Y334D03*
X1864Y334D03*
X1964Y334D03*
X2064Y334D03*
X2164Y334D03*
X2264Y334D03*
X2364Y334D03*
X564Y1234D03*
X664Y1234D03*
X764Y1234D03*
X864Y1234D03*
X964Y1234D03*
X1064Y1234D03*
X1164Y1234D03*
X1264Y1234D03*
X1364Y1234D03*
X1464Y1234D03*
X1564Y1234D03*
X1664Y1234D03*
X1764Y1234D03*
X1864Y1234D03*
X1964Y1234D03*
X2064Y1234D03*
X2164Y1234D03*
X2264Y1234D03*
X2364Y1234D03*
G54D16*
X2164Y984D03*
X2164Y883D03*
X2264Y984D03*
X2264Y883D03*
X564Y834D03*
X564Y934D03*
X664Y834D03*
X664Y934D03*
X2464Y984D03*
X2464Y883D03*
G54D15*
X164Y134D03*
X164Y234D03*
X164Y1434D03*
X164Y1334D03*
G54D17*
X2599Y1384D03*
X2599Y165D03*
X214Y784D03*
G54D18*
G36*
X2590Y1108D02*
X2590Y1156D01*
X2638Y1156D01*
X2638Y1108D01*
X2590Y1108D01*
G37*
D02*
G54D19*
G36*
X336Y161D02*
X391Y161D01*
X391Y106D01*
X336Y106D01*
X336Y161D01*
G37*
D02*
G36*
X391Y1406D02*
X336Y1406D01*
X336Y1461D01*
X391Y1461D01*
X391Y1406D01*
G37*
D02*
G04 End of Mask0*
M02*